HIERARCHY
ROOT Hips
{
	OFFSET 0.00000 0.00000 0.00000
	CHANNELS 6 Xposition Yposition Zposition Yrotation Zrotation Xrotation 
	JOINT Lumbar
	{
		OFFSET 0 0 0
		CHANNELS 3 Zrotation Xrotation Yrotation
		JOINT Neck
		{
			OFFSET 0.00 0.2701 0.00
			CHANNELS 3 Zrotation Xrotation Yrotation
			End Site
			{
				OFFSET 0.00 0.1379 0.00
			}
		}
		JOINT RightShoulder
		{
			OFFSET 0.0119 0.2289 0.1181
			CHANNELS 3 Zrotation Xrotation Yrotation
			JOINT RightElbow
			{
				OFFSET 0.00 -0.1475 0.00
				CHANNELS 2 Zrotation Yrotation
				JOINT RightWrist
				{
					OFFSET 0.00 -0.1605 0.00
					CHANNELS 2 Zrotation Xrotation
					End Site
					{
						OFFSET 0.0040 -0.1068 0.0006
					}
				}
			}
		}
		JOINT LeftShoulder
		{
			OFFSET 0.0119 0.2289 -0.1181
			CHANNELS 3 Zrotation Xrotation Yrotation
			JOINT LeftElbow
			{
				OFFSET 0.00 -0.1475 0.00
				CHANNELS 2 Zrotation Yrotation
				JOINT LeftWrist
				{
					OFFSET 0.00 -0.1605 0.00
					CHANNELS 2 Zrotation Xrotation
					End Site
					{
						OFFSET 0.0040 -0.1068 -0.0006
					}
				}
			}
		}
	}
	JOINT RightHip
	{
		OFFSET 0.0316 -0.0424 0.0458
		CHANNELS 3 Zrotation Xrotation Yrotation
		JOINT RightKnee
		{
			OFFSET 0.00 -0.2438 0.00
			CHANNELS 1 Zrotation
			JOINT RightAnkle
			{
				OFFSET 0.00 -0.2449 0.00
				CHANNELS 3 Zrotation Xrotation Yrotation
				End Site
				{
					OFFSET 0.1237 -0.0542 0.0051
				}
			}
		}
	}
	JOINT LeftHip
	{
		OFFSET 0.0316 -0.0424 -0.0458
		CHANNELS 3 Zrotation Xrotation Yrotation
		JOINT LeftKnee
		{
			OFFSET 0.00 -0.2438 0.00
			CHANNELS 1 Zrotation
			JOINT LeftAnkle
			{
				OFFSET 0.00 -0.2449 0.00
				CHANNELS 3 Zrotation Xrotation Yrotation
				End Site
				{
					OFFSET 0.1237 -0.0542 -0.0051
				}
			}
		}
	}
}
MOTION
Frames: 11
Frame Time: 0.02
-0 0.57926 -0 174.9886 0 3.39571 8.69591 -1.37884 -2.75938 -34.85679 3.28916 6.10097 26.6617 -16.16927 2.54133 10.13699 88.05472 -0.0673 1.30176 28.71147 2.2977 -8.42912 7.71129 -74.77187 -6.82931 1.15721 2.98256 0.97612 9.64942 -22.72337 12.28982 -9.98855 -13.5522 2.54456 -3.90497 -9.51662 -18.53429 8.69682 7.13296 12.19345
0.00021 0.57926 0.0001 174.98579 0 3.38052 8.67059 -1.37949 -2.77891 -34.8743 3.37579 6.1678 26.67435 -16.30165 2.67525 10.1589 87.6366 -0.07388 1.29919 28.7269 2.17574 -8.41805 7.69956 -74.86192 -6.80526 1.14649 3.01475 0.99077 9.66816 -22.74265 12.28055 -9.96606 -13.57442 2.59718 -3.90386 -9.51533 -18.60043 8.70403 7.14446 12.19544
0.00042 0.57926 0.00021 174.982 0 3.3654 8.6455 -1.37998 -2.79815 -34.89285 3.46191 6.23451 26.68796 -16.43362 2.80825 10.18079 87.22055 -0.08048 1.29661 28.74319 2.05424 -8.40694 7.68793 -74.9519 -6.78139 1.13568 3.0468 1.00526 9.68809 -22.76176 12.27137 -9.94386 -13.59644 2.64948 -3.90285 -9.51324 -18.66644 8.71127 7.15596 12.19762
0.00063 0.57926 0.00031 174.97556 0 3.35077 8.62143 -1.38047 -2.81611 -34.91628 3.54697 6.30161 26.70571 -16.56518 2.93898 10.20275 86.80949 -0.08724 1.29408 28.76412 1.93318 -8.39558 7.67615 -75.04286 -6.75783 1.12435 3.07858 1.01915 9.71156 -22.78079 12.26256 -9.92274 -13.61804 2.70089 -3.9023 -9.50893 -18.7319 8.71844 7.1674 12.20038
0.00086 0.57925 0.00041 174.98474 0 3.33396 8.59242 -1.38174 -2.84051 -34.91451 3.63778 6.3669 26.70176 -16.69881 3.08186 10.22429 86.37297 -0.09318 1.29137 28.76178 1.80951 -8.38555 7.66465 -75.12907 -6.73244 1.11569 3.11177 1.03615 9.7146 -22.80073 12.25191 -9.8961 -13.64207 2.75686 -3.89941 -9.51758 -18.79949 8.72564 7.17895 12.19982
0.00105 0.57925 0.00053 174.9598 0 3.32152 8.57359 -1.38081 -2.8515 -34.96558 3.71626 6.43576 26.74353 -16.82799 3.19883 10.2467 85.99009 -0.10085 1.28901 28.80777 1.69167 -8.37269 7.65293 -75.22495 -6.71106 1.10147 3.14193 1.0466 9.762 -22.81841 12.2451 -9.88104 -13.6608 2.80325 -3.90139 -9.49799 -18.86303 8.73303 7.19041 12.20646
0.00115 0.57925 0.00066 174.84492 0 3.32351 8.58574 -1.37818 -2.8224 -35.17325 3.7625 6.51843 26.91867 -16.94783 3.24547 10.27232 85.75548 -0.11357 1.28802 29.00051 1.58556 -8.35171 7.63705 -75.35364 -6.69957 1.07013 3.16471 1.03802 9.92843 -22.83284 12.24957 -9.89984 -13.66599 2.82238 -3.91797 -9.40352 -18.91229 8.73904 7.2006 12.2325
0.00123 0.57925 0.00081 174.69443 0 3.32948 8.60763 -1.37255 -2.78027 -35.43247 3.79617 6.60415 27.13873 -17.06293 3.26575 10.29877 85.57473 -0.12801 1.2874 29.23963 1.4859 -8.32796 7.62158 -75.49123 -6.69232 1.03347 3.18435 1.02297 10.14063 -22.84457 12.2578 -9.93004 -13.66562 2.83192 -3.93929 -9.27963 -18.95801 8.74564 7.21092 12.26593
0.00132 0.57925 0.00096 174.55757 0 3.33206 8.62325 -1.36536 -2.74609 -35.66152 3.83426 6.68587 27.33398 -17.17823 3.29742 10.32427 85.36894 -0.14149 1.28627 29.44932 1.38611 -8.30555 7.60821 -75.62078 -6.68394 1.00039 3.20474 1.0115 10.33419 -22.85543 12.26386 -9.95381 -13.66714 2.84652 -3.95763 -9.16739 -19.00756 8.75319 7.22184 12.29635
0.00141 0.57925 0.00108 174.43242 0 3.34126 8.64678 -1.3703 -2.70344 -35.91927 3.87717 6.77822 27.54825 -17.30112 3.33174 10.35189 85.16557 -0.15571 1.28626 29.69489 1.27497 -8.28249 7.58515 -75.76667 -6.67231 0.96246 3.22771 0.9974 10.51798 -22.87462 12.27181 -9.98277 -13.67145 2.85852 -3.9793 -9.06342 -19.04808 8.7555 7.2299 12.32536
0.00149 0.57926 0.00128 174.27325 0 3.33771 8.65599 -1.34951 -2.6752 -36.12915 3.90784 6.84962 27.73295 -17.40787 3.35404 10.37564 84.96994 -0.16881 1.28438 29.87592 1.18846 -8.26051 7.58241 -75.88124 -6.66833 0.9333 3.2449 0.98713 10.73377 -22.87645 12.2768 -10.00374 -13.66852 2.87318 -3.99533 -8.93396 -19.10612 8.76897 7.24403 12.35898
